<?xml version="1.0" standalone="no"?>
<!DOCTYPE svg PUBLIC "-//W3C//DTD SVG 20010904//EN"
 "http://www.w3.org/TR/2001/REC-SVG-20010904/DTD/svg10.dtd">
<svg version="1.0" xmlns="http://www.w3.org/2000/svg"
 width="480.000000pt" height="480.000000pt" viewBox="0 0 480.000000 480.000000"
 preserveAspectRatio="xMidYMid meet">

<g transform="translate(0.000000,480.000000) scale(0.100000,-0.100000)"
fill="#212529" stroke="none">
<path d="M1851 4169 c-95 -68 -92 -201 7 -262 105 -66 972 -563 1004 -575 145
-57 271 135 165 251 -21 24 -203 134 -537 326 -461 266 -509 291 -551 291 -35
0 -56 -7 -88 -31z"/>
<path d="M1530 3333 c-135 -234 -259 -451 -277 -482 l-32 -56 476 -275 c262
-151 481 -275 487 -275 6 0 54 74 107 165 53 91 101 164 106 163 6 -1 386
-239 844 -529 459 -290 852 -535 874 -545 114 -52 264 14 311 137 12 31 15 61
11 102 -6 67 -23 107 -66 150 -17 17 -399 223 -913 492 -486 255 -888 468
-895 474 -8 8 13 53 87 181 55 93 98 170 97 171 -15 12 -961 554 -966 554 -3
-1 -116 -192 -251 -427z"/>
<path d="M993 2660 c-97 -44 -122 -180 -46 -252 16 -14 255 -157 533 -317 449
-259 509 -291 548 -291 166 0 219 207 76 297 -87 55 -958 555 -991 569 -43 19
-70 17 -120 -6z"/>
<path d="M894 1260 c-65 -33 -84 -77 -84 -199 l0 -101 -85 0 -85 0 0 -49 c0
-27 3 -63 6 -80 l7 -31 1032 0 c933 0 1033 2 1039 16 3 9 6 42 6 73 l0 58 -46
7 c-26 3 -62 6 -80 6 -34 0 -34 0 -34 48 -1 85 -17 180 -36 206 -11 14 -37 35
-60 46 -39 20 -59 20 -790 20 -731 0 -750 0 -790 -20z"/>
</g>
</svg>
