<svg width="328" height="88" viewBox="0 0 328.003 87.809" xmlns="http://www.w3.org/2000/svg"><g id="svgGroup" stroke-linecap="round" fill-rule="evenodd" font-size="9pt" stroke="#343a40" stroke-width="0" fill="#343a40" style="stroke:#343a40;stroke-width:0;fill:#343a40"><path d="M 15.37 86.121 A 24.013 24.013 0 0 0 24.402 87.801 A 21.358 21.358 0 0 0 41.486 79.794 A 35.017 35.017 0 0 0 46.202 72.301 Q 46.666 75.423 47.7 77.949 A 16.346 16.346 0 0 0 51.602 83.751 A 14.324 14.324 0 0 0 57.892 87.195 A 19.66 19.66 0 0 0 62.902 87.801 A 25.293 25.293 0 0 0 67.707 87.365 A 18.346 18.346 0 0 0 74.402 84.701 A 31.425 31.425 0 0 0 76.431 83.24 Q 80.155 80.333 84.002 75.701 Q 85.902 73.401 85.902 69.501 Q 85.902 68.271 85.645 67.349 A 4.376 4.376 0 0 0 85.152 66.201 A 3.165 3.165 0 0 0 84.852 65.793 A 2.225 2.225 0 0 0 83.102 65.001 A 3.137 3.137 0 0 0 81.242 65.618 A 4.764 4.764 0 0 0 80.402 66.401 A 99.526 99.526 0 0 1 78.993 68.032 Q 75.524 71.955 73.102 73.751 A 12.538 12.538 0 0 1 71.866 74.562 A 9.657 9.657 0 0 1 67.002 75.901 A 7.816 7.816 0 0 1 65.915 75.828 A 5.202 5.202 0 0 1 62.102 73.451 Q 60.94 71.671 60.622 68.334 A 28.932 28.932 0 0 1 60.502 65.601 A 44.185 44.185 0 0 1 60.574 63.178 Q 60.896 57.35 62.652 47.751 Q 64.802 36.001 67.402 26.301 A 13.117 13.117 0 0 0 67.564 25.573 Q 67.629 25.23 67.664 24.928 A 5.549 5.549 0 0 0 67.702 24.301 A 4.168 4.168 0 0 0 67.077 21.976 Q 65.99 20.308 63.015 19.863 A 16.406 16.406 0 0 0 60.602 19.701 A 15.558 15.558 0 0 0 59.225 19.759 Q 57.168 19.942 55.802 20.701 A 3.982 3.982 0 0 0 54.715 21.591 Q 54.211 22.176 53.864 22.997 A 8.386 8.386 0 0 0 53.402 24.501 Q 50.859 37.701 48.268 47.12 A 139.541 139.541 0 0 1 45.902 54.901 Q 43.349 62.426 40.435 67.152 A 25.89 25.89 0 0 1 37.502 71.101 A 18.983 18.983 0 0 1 36.179 72.408 A 13.695 13.695 0 0 1 26.802 76.101 A 10.066 10.066 0 0 1 20.918 74.33 A 11.965 11.965 0 0 1 18.052 71.451 A 15.174 15.174 0 0 1 16.145 67.799 Q 15.389 65.746 15.03 63.238 A 34.837 34.837 0 0 1 14.702 58.301 A 61.634 61.634 0 0 1 14.712 57.208 A 53.706 53.706 0 0 1 19.102 36.501 Q 23.502 26.401 32.402 20.251 A 33.483 33.483 0 0 1 43.617 15.278 A 43.762 43.762 0 0 1 54.002 14.101 Q 58.102 14.101 61.802 14.651 Q 64.115 14.995 67.013 15.592 A 161.486 161.486 0 0 1 70.702 16.401 A 2.175 2.175 0 0 0 70.848 16.432 Q 71.237 16.501 71.902 16.501 A 5.365 5.365 0 0 0 74.967 15.557 A 7.356 7.356 0 0 0 76.452 14.201 A 9.537 9.537 0 0 0 77.328 12.995 A 7 7 0 0 0 78.402 9.301 A 5.783 5.783 0 0 0 78.273 8.037 Q 77.989 6.768 77.079 6.035 A 4.135 4.135 0 0 0 75.602 5.301 A 47.157 47.157 0 0 0 71.658 4.21 A 59.808 59.808 0 0 0 66.052 3.201 A 85.239 85.239 0 0 0 62.167 2.771 A 68.981 68.981 0 0 0 56.202 2.501 A 69.704 69.704 0 0 0 44.067 3.515 A 51.654 51.654 0 0 0 25.702 10.351 Q 13.002 18.201 6.502 31.151 Q 0.002 44.101 0.002 59.301 Q 0.002 68.101 3.202 74.551 A 28.131 28.131 0 0 0 4.485 76.863 A 22.656 22.656 0 0 0 11.952 84.401 A 22.79 22.79 0 0 0 15.37 86.121 Z" id="0" vector-effect="non-scaling-stroke"/><path d="M 81.589 84.853 A 8.258 8.258 0 0 0 88.002 87.801 A 8.146 8.146 0 0 0 89.498 87.663 Q 91.315 87.325 93.017 86.153 A 13.966 13.966 0 0 0 95.302 84.151 A 16.276 16.276 0 0 0 96.994 81.981 Q 98.143 80.232 99.033 78.004 A 33.504 33.504 0 0 0 100.402 73.701 A 33.051 33.051 0 0 0 100.574 77.178 Q 100.782 79.137 101.241 80.762 A 13.395 13.395 0 0 0 102.652 84.101 A 7.25 7.25 0 0 0 106.827 87.403 A 9.788 9.788 0 0 0 109.702 87.801 Q 116.002 87.801 120.952 84.401 Q 125.902 81.001 130.202 75.701 A 6.749 6.749 0 0 0 131.105 74.352 Q 132.102 72.399 132.102 69.501 Q 132.102 68.271 131.845 67.349 A 4.376 4.376 0 0 0 131.352 66.201 A 3.165 3.165 0 0 0 131.052 65.793 A 2.225 2.225 0 0 0 129.302 65.001 A 3.137 3.137 0 0 0 127.442 65.618 A 4.764 4.764 0 0 0 126.602 66.401 Q 122.002 71.901 119.252 74.351 A 18.563 18.563 0 0 1 118.688 74.835 Q 117.212 76.047 115.966 76.512 A 4.196 4.196 0 0 1 114.502 76.801 A 3.186 3.186 0 0 1 114.457 76.801 Q 113.189 76.783 112.402 75.751 A 3.349 3.349 0 0 1 111.97 74.986 Q 111.602 74.089 111.602 72.801 Q 111.602 70.364 113.451 61.457 A 426.31 426.31 0 0 1 114.402 57.001 A 447.762 447.762 0 0 0 114.713 55.597 Q 116.902 45.64 116.902 43.301 A 4.334 4.334 0 0 0 116.882 42.871 Q 116.843 42.482 116.73 42.17 A 1.727 1.727 0 0 0 116.002 41.251 A 2.52 2.52 0 0 0 115.511 41.026 Q 114.57 40.701 112.802 40.701 Q 110.83 40.701 109.447 41.165 A 5.254 5.254 0 0 0 107.852 42.001 A 5.37 5.37 0 0 0 106.848 43.055 Q 106.363 43.717 105.985 44.592 A 12.336 12.336 0 0 0 105.402 46.301 A 175.362 175.362 0 0 1 104.269 50.319 Q 102.405 56.631 100.452 61.301 A 89.066 89.066 0 0 1 99.962 62.452 Q 98.473 65.879 97.088 68.223 A 23.883 23.883 0 0 1 95.652 70.401 A 22.589 22.589 0 0 1 95.508 70.591 Q 93.354 73.401 91.902 73.401 A 2.428 2.428 0 0 1 91.48 73.366 A 1.635 1.635 0 0 1 90.302 72.551 A 2.43 2.43 0 0 1 90.104 72.11 Q 89.802 71.233 89.802 69.601 Q 89.802 66.101 91.802 55.601 A 74.279 74.279 0 0 1 91.841 55.407 Q 92.138 53.946 92.527 52.321 A 124.01 124.01 0 0 1 93.402 48.901 A 198.933 198.933 0 0 0 93.7 47.64 Q 94.326 44.943 94.464 43.935 A 3.471 3.471 0 0 0 94.502 43.501 A 4.518 4.518 0 0 0 94.502 43.425 Q 94.479 42.082 93.652 41.401 A 2.096 2.096 0 0 0 93.241 41.141 Q 92.346 40.701 90.602 40.701 Q 88.043 40.701 86.388 41.261 A 5.57 5.57 0 0 0 84.902 42.001 A 5.856 5.856 0 0 0 83.913 42.912 Q 82.808 44.183 82.102 46.301 A 98.87 98.87 0 0 0 80.448 51.865 A 78.663 78.663 0 0 0 78.802 59.551 A 75.931 75.931 0 0 0 78.101 65.472 A 98.01 98.01 0 0 0 77.802 73.301 A 22.346 22.346 0 0 0 78.255 77.916 A 15.755 15.755 0 0 0 80.652 83.651 A 12.208 12.208 0 0 0 81.589 84.853 Z" id="1" vector-effect="non-scaling-stroke"/><path d="M 136.879 87.145 A 27.786 27.786 0 0 0 143.102 87.801 A 25.824 25.824 0 0 0 149.711 86.912 A 33.965 33.965 0 0 0 155.752 84.651 Q 162.302 81.501 167.002 75.701 A 7.94 7.94 0 0 0 167.075 75.608 Q 168.902 73.228 168.902 69.501 Q 168.902 68.271 168.645 67.349 A 4.376 4.376 0 0 0 168.152 66.201 A 3.165 3.165 0 0 0 167.852 65.793 A 2.225 2.225 0 0 0 166.102 65.001 A 3.137 3.137 0 0 0 164.242 65.618 A 4.764 4.764 0 0 0 163.402 66.401 A 52.277 52.277 0 0 1 162.408 67.556 Q 160.454 69.759 158.473 71.469 A 29.142 29.142 0 0 1 154.052 74.651 A 27.22 27.22 0 0 1 152.725 75.372 Q 148.724 77.401 145.202 77.401 Q 135.102 77.401 135.102 65.801 A 27.259 27.259 0 0 1 135.22 63.244 A 22.235 22.235 0 0 1 136.302 58.101 Q 137.502 54.601 139.502 52.551 Q 140.205 51.83 140.946 51.363 A 5.272 5.272 0 0 1 143.802 50.501 A 4.051 4.051 0 0 1 143.856 50.501 Q 144.256 50.507 144.594 50.591 A 2.108 2.108 0 0 1 145.652 51.201 Q 146.302 51.901 146.302 53.201 A 7.712 7.712 0 0 1 146.169 54.595 A 10.395 10.395 0 0 1 145.802 56.001 Q 145.702 56.401 145.502 57.301 A 10.596 10.596 0 0 0 145.45 57.55 Q 145.378 57.918 145.341 58.25 A 5.907 5.907 0 0 0 145.302 58.901 A 4.141 4.141 0 0 0 145.317 59.255 A 2.922 2.922 0 0 0 146.452 61.401 Q 147.189 61.978 148.234 62.185 A 6.523 6.523 0 0 0 149.502 62.301 A 5.166 5.166 0 0 0 153.023 60.984 A 7.342 7.342 0 0 0 154.352 59.401 Q 156.202 56.501 156.202 52.301 A 15.224 15.224 0 0 0 156.056 50.158 A 11.115 11.115 0 0 0 153.152 43.951 A 9.938 9.938 0 0 0 148.094 41.085 A 14.959 14.959 0 0 0 144.602 40.701 A 18.46 18.46 0 0 0 139.966 41.288 A 20.649 20.649 0 0 0 133.902 44.001 A 22.297 22.297 0 0 0 129.473 47.782 A 27.034 27.034 0 0 0 125.602 53.401 A 26.913 26.913 0 0 0 123.153 60.223 A 34.687 34.687 0 0 0 122.402 67.601 A 26.418 26.418 0 0 0 122.746 71.945 A 18.699 18.699 0 0 0 127.852 82.251 A 17.026 17.026 0 0 0 129.259 83.533 Q 132.451 86.128 136.879 87.145 Z" id="2" vector-effect="non-scaling-stroke"/><path d="M 165.602 50.201 L 161.702 50.201 Q 158.702 50.201 157.652 49.101 Q 156.889 48.301 156.681 46.814 A 8.767 8.767 0 0 1 156.602 45.601 A 10.231 10.231 0 0 1 156.788 43.557 Q 157.43 40.424 160.29 40.051 A 6.292 6.292 0 0 1 161.102 40.001 L 166.802 40.001 Q 168.502 29.001 172.002 19.901 A 59.1 59.1 0 0 1 175.054 13.177 Q 177.494 8.628 180.452 5.401 A 20.38 20.38 0 0 1 183.782 2.439 Q 186.223 0.734 188.829 0.222 A 11.751 11.751 0 0 1 191.102 0.001 Q 194.967 0.001 197.307 3.133 A 10.433 10.433 0 0 1 197.702 3.701 A 14.264 14.264 0 0 1 199.61 8.316 Q 200.041 10.195 200.095 12.373 A 25.393 25.393 0 0 1 200.102 13.001 A 33.828 33.828 0 0 1 190.675 36.499 A 47.53 47.53 0 0 1 187.102 40.001 L 198.302 40.001 A 5.768 5.768 0 0 1 199.121 40.055 Q 200.097 40.195 200.602 40.701 A 1.879 1.879 0 0 1 200.997 41.315 Q 201.302 42.047 201.302 43.301 Q 201.302 50.201 190.002 50.201 L 177.802 50.201 Q 177.649 54.029 177.613 56.568 A 101.939 101.939 0 0 0 177.602 58.001 Q 177.602 68.401 180.052 72.601 A 7.985 7.985 0 0 0 185.767 76.628 A 11.441 11.441 0 0 0 187.802 76.801 Q 192.102 76.801 195.402 74.201 A 35.701 35.701 0 0 0 197.582 72.322 Q 199.941 70.132 202.794 66.87 A 115.889 115.889 0 0 0 203.202 66.401 A 4.764 4.764 0 0 1 204.042 65.618 A 3.137 3.137 0 0 1 205.902 65.001 A 2.225 2.225 0 0 1 207.652 65.793 A 3.165 3.165 0 0 1 207.952 66.201 A 4.376 4.376 0 0 1 208.445 67.349 Q 208.702 68.271 208.702 69.501 Q 208.702 72.399 207.705 74.352 A 6.749 6.749 0 0 1 206.802 75.701 A 45.062 45.062 0 0 1 200.852 81.807 A 38.566 38.566 0 0 1 197.402 84.401 A 20.322 20.322 0 0 1 186.927 87.771 A 24.839 24.839 0 0 1 185.702 87.801 A 20.157 20.157 0 0 1 175.841 85.531 Q 167.595 80.991 165.801 67.374 A 63.566 63.566 0 0 1 165.302 59.101 Q 165.302 54.701 165.602 50.201 Z M 188.402 9.601 A 1.619 1.619 0 0 0 187.487 9.927 Q 186.483 10.62 185.342 12.783 A 23.496 23.496 0 0 0 185.052 13.351 Q 183.202 17.101 181.552 23.751 Q 179.902 30.401 178.802 38.501 A 36.677 36.677 0 0 0 184.769 32.004 A 31.376 31.376 0 0 0 187.652 27.051 A 37.252 37.252 0 0 0 189.45 22.45 Q 190.24 19.914 190.488 17.589 A 19.652 19.652 0 0 0 190.602 15.501 Q 190.602 10.947 189.292 9.908 A 1.392 1.392 0 0 0 188.402 9.601 Z" id="3" vector-effect="non-scaling-stroke"/><path d="M 209.187 87.352 A 14.405 14.405 0 0 0 212.902 87.801 A 13.017 13.017 0 0 0 215.885 87.446 Q 221 86.245 226.552 80.977 A 57.215 57.215 0 0 0 231.402 75.701 A 6.749 6.749 0 0 0 232.305 74.352 Q 233.302 72.399 233.302 69.501 Q 233.302 68.271 233.045 67.349 A 4.376 4.376 0 0 0 232.552 66.201 A 3.165 3.165 0 0 0 232.252 65.793 A 2.225 2.225 0 0 0 230.502 65.001 A 3.137 3.137 0 0 0 228.642 65.618 A 4.764 4.764 0 0 0 227.802 66.401 A 184.196 184.196 0 0 1 226.337 68.138 Q 224.028 70.841 222.264 72.665 A 42.627 42.627 0 0 1 220.602 74.301 Q 217.902 76.801 216.102 76.801 A 3.986 3.986 0 0 1 215.566 76.766 Q 214.763 76.657 214.195 76.207 A 2.931 2.931 0 0 1 213.402 75.201 Q 212.602 73.601 212.602 70.601 A 18.033 18.033 0 0 1 212.648 69.396 Q 212.86 66.257 214.067 60.174 A 243.091 243.091 0 0 1 215.002 55.701 A 333.394 333.394 0 0 0 215.056 55.443 Q 216.5 48.5 216.815 45.48 A 13.831 13.831 0 0 0 216.902 44.101 Q 216.902 41.365 213.6 40.831 A 11.317 11.317 0 0 0 211.802 40.701 Q 209.688 40.701 208.313 41.194 A 4.516 4.516 0 0 0 207.002 41.901 A 4.047 4.047 0 0 0 206.728 42.143 Q 205.824 43.01 205.156 44.659 A 15.701 15.701 0 0 0 204.602 46.301 A 96.723 96.723 0 0 0 203.344 51.01 A 115.141 115.141 0 0 0 201.652 59.451 Q 200.898 64.078 200.638 67.606 A 46.575 46.575 0 0 0 200.502 71.001 A 35.4 35.4 0 0 0 200.588 73.506 Q 201.006 79.386 203.452 83.201 A 9.47 9.47 0 0 0 209.187 87.352 Z M 211.394 33.929 A 14.478 14.478 0 0 0 213.702 34.101 A 12.934 12.934 0 0 0 216.487 33.817 A 8.852 8.852 0 0 0 220.602 31.751 A 7.555 7.555 0 0 0 222.821 28.222 A 9.921 9.921 0 0 0 223.202 25.401 A 8.542 8.542 0 0 0 223.146 24.406 A 5.858 5.858 0 0 0 220.902 20.301 A 7.5 7.5 0 0 0 220.414 19.95 Q 219.134 19.103 217.468 18.752 A 12.408 12.408 0 0 0 214.902 18.501 A 12.993 12.993 0 0 0 213.285 18.599 A 9.725 9.725 0 0 0 208.052 20.851 A 9.427 9.427 0 0 0 207.639 21.225 A 7.313 7.313 0 0 0 205.302 26.701 A 9.57 9.57 0 0 0 205.507 28.737 A 6.381 6.381 0 0 0 207.402 32.151 Q 208.879 33.522 211.394 33.929 Z" id="4" vector-effect="non-scaling-stroke"/><path d="M 277.861 57.387 A 2.055 2.055 0 0 0 276.202 56.601 A 4.008 4.008 0 0 0 275.935 56.61 Q 275.43 56.644 274.802 56.801 A 89.607 89.607 0 0 1 271.795 57.534 Q 267.178 58.573 263.602 58.801 A 27.657 27.657 0 0 0 263.256 56.44 A 21.86 21.86 0 0 0 258.152 45.851 A 14.981 14.981 0 0 0 251.74 41.518 A 17.814 17.814 0 0 0 245.902 40.601 Q 239.702 40.601 234.602 43.951 A 21.614 21.614 0 0 0 230.954 46.965 A 24.072 24.072 0 0 0 226.602 53.251 A 27.572 27.572 0 0 0 224.509 59.244 A 34.036 34.036 0 0 0 223.702 66.801 A 28.272 28.272 0 0 0 223.706 67.237 A 24.553 24.553 0 0 0 225.902 77.201 Q 228.102 82.001 232.352 84.901 A 16.069 16.069 0 0 0 237.524 87.206 A 20.705 20.705 0 0 0 242.602 87.801 A 18.053 18.053 0 0 0 249.153 86.607 A 19.822 19.822 0 0 0 255.302 82.751 A 22.918 22.918 0 0 0 260.208 76.44 A 28.513 28.513 0 0 0 262.802 69.301 A 52.306 52.306 0 0 0 267.212 68.934 A 42.89 42.89 0 0 0 276.002 66.901 A 3.589 3.589 0 0 0 278.255 64.867 Q 278.893 63.49 278.902 61.267 A 15.748 15.748 0 0 0 278.902 61.201 A 10.564 10.564 0 0 0 278.887 60.617 Q 278.846 59.891 278.703 59.267 A 5.429 5.429 0 0 0 278.202 57.901 A 3.16 3.16 0 0 0 277.861 57.387 Z M 246.002 51.201 L 245.502 51.201 A 7.373 7.373 0 0 0 239.985 53.646 A 11.395 11.395 0 0 0 238.852 55.051 A 13.286 13.286 0 0 0 237.112 58.779 Q 236.202 61.799 236.202 65.901 A 22.559 22.559 0 0 0 236.407 69.048 Q 236.866 72.296 238.352 74.301 A 8.845 8.845 0 0 0 239.769 75.83 A 5.53 5.53 0 0 0 243.402 77.201 A 7.088 7.088 0 0 0 248.428 75.139 A 9.727 9.727 0 0 0 248.952 74.601 A 10.806 10.806 0 0 0 250.738 71.829 Q 251.313 70.573 251.702 69.04 A 22.846 22.846 0 0 0 252.102 67.101 Q 249.002 65.001 247.352 61.601 Q 245.702 58.201 245.702 54.401 Q 245.702 52.801 246.002 51.201 Z" id="5" vector-effect="non-scaling-stroke"/><path d="M 274.828 87.218 A 5.504 5.504 0 0 0 277.402 87.801 A 10.201 10.201 0 0 0 278.389 87.755 Q 280.744 87.526 281.952 86.151 A 5.867 5.867 0 0 0 282.603 85.227 Q 283.656 83.417 284.502 79.801 Q 286.002 73.701 288.452 68.201 Q 289.984 64.764 291.476 62.166 A 37.022 37.022 0 0 1 293.252 59.351 A 26.699 26.699 0 0 1 293.847 58.535 Q 295.772 56.001 296.902 56.001 A 1.452 1.452 0 0 1 296.962 56.002 Q 297.793 56.036 297.96 57.037 A 3.445 3.445 0 0 1 298.002 57.601 A 10.115 10.115 0 0 1 297.998 57.88 Q 297.947 59.738 297.24 63.562 A 135.129 135.129 0 0 1 296.702 66.301 A 187.798 187.798 0 0 0 296.505 67.332 Q 295.617 72.041 295.384 74.687 A 18.845 18.845 0 0 0 295.302 76.301 A 21.172 21.172 0 0 0 295.39 78.272 Q 295.553 80.008 296.015 81.437 A 9.508 9.508 0 0 0 297.902 84.851 Q 299.67 86.856 302.592 87.498 A 14.03 14.03 0 0 0 305.602 87.801 Q 311.902 87.801 316.852 84.401 Q 321.802 81.001 326.102 75.701 A 6.749 6.749 0 0 0 327.005 74.352 Q 328.002 72.399 328.002 69.501 Q 328.002 68.271 327.745 67.349 A 4.376 4.376 0 0 0 327.252 66.201 A 3.165 3.165 0 0 0 326.952 65.793 A 2.225 2.225 0 0 0 325.202 65.001 A 3.137 3.137 0 0 0 323.342 65.618 A 4.764 4.764 0 0 0 322.502 66.401 Q 317.902 71.901 315.152 74.351 A 18.563 18.563 0 0 1 314.588 74.835 Q 313.112 76.047 311.866 76.512 A 4.196 4.196 0 0 1 310.402 76.801 A 4.066 4.066 0 0 1 310.273 76.799 Q 308.067 76.729 307.617 74.236 A 8.127 8.127 0 0 1 307.502 72.801 A 12.459 12.459 0 0 1 307.54 71.9 Q 307.71 69.575 308.662 64.825 A 209.257 209.257 0 0 1 309.402 61.301 Q 311.07 53.571 311.473 49.46 A 23.598 23.598 0 0 0 311.602 47.201 A 9.576 9.576 0 0 0 311.325 44.794 Q 310.559 41.849 307.675 41.023 A 9.357 9.357 0 0 0 305.102 40.701 A 10.337 10.337 0 0 0 303.368 40.852 Q 300.79 41.291 297.852 43.001 A 18.98 18.98 0 0 0 295.531 44.61 Q 292.704 46.879 289.802 50.701 A 39.284 39.284 0 0 0 288.154 53.05 Q 285.026 57.865 282.402 64.701 A 103.09 103.09 0 0 1 282.672 62.088 Q 282.99 59.364 283.402 57.301 A 111.739 111.739 0 0 1 283.816 55.328 Q 284.315 53.051 285.002 50.301 A 131.293 131.293 0 0 0 285.507 48.362 Q 286.235 45.467 286.431 43.992 A 7.037 7.037 0 0 0 286.502 43.101 Q 286.502 42.439 286.324 41.979 A 1.541 1.541 0 0 0 285.702 41.201 A 2.213 2.213 0 0 0 285.286 41.003 Q 284.456 40.701 282.902 40.701 A 17.019 17.019 0 0 0 281.091 40.792 Q 279.999 40.909 279.09 41.177 A 7.202 7.202 0 0 0 277.152 42.051 A 6.654 6.654 0 0 0 275.039 44.344 A 9.683 9.683 0 0 0 274.202 46.301 A 76.942 76.942 0 0 0 273.647 48.137 A 81.944 81.944 0 0 0 270.502 71.001 A 85.718 85.718 0 0 0 270.554 74.053 Q 270.706 78.302 271.303 81.171 A 16.809 16.809 0 0 0 272.052 83.801 A 8.457 8.457 0 0 0 272.793 85.29 Q 273.621 86.591 274.828 87.218 Z" id="6" vector-effect="non-scaling-stroke"/></g></svg>